<svg width="1574" height="218" viewBox="0 0 1574 218" fill="none" xmlns="http://www.w3.org/2000/svg">
    <path d="M0.475586 132.215L19.3188 120.854C38.162 109.377 75.8485 86.6559 113.207 71.1219C150.73 55.7037 187.761 47.5889 225.284 42.0245C262.642 36.3441 300.329 33.33 337.687 31.1274C375.21 29.0407 412.241 27.8815 449.764 24.7515C487.122 21.7374 524.809 16.6367 562.168 9.56522C599.69 2.37781 636.721 -6.89626 674.244 7.82633C711.603 22.433 749.289 61.1522 786.976 70.7741C824.662 80.396 862.349 61.1522 899.707 51.0667C937.23 40.9811 974.261 40.2856 1011.78 47.9367C1049.14 55.7037 1086.83 71.9334 1124.19 88.163C1161.71 104.393 1198.74 120.622 1236.26 120.39C1273.62 120.274 1311.31 103.581 1348.67 80.0482C1386.19 56.5152 1423.22 25.9108 1460.74 12.8111C1498.1 -0.288501 1535.79 3.88485 1554.63 6.08744L1573.48 8.17409V219.159H1554.63C1535.79 219.159 1498.1 219.159 1460.74 219.159C1423.22 219.159 1386.19 219.159 1348.67 219.159C1311.31 219.159 1273.62 219.159 1236.26 219.159C1198.74 219.159 1161.71 219.159 1124.19 219.159C1086.83 219.159 1049.14 219.159 1011.78 219.159C974.261 219.159 937.23 219.159 899.707 219.159C862.349 219.159 824.662 219.159 786.976 219.159C749.289 219.159 711.603 219.159 674.244 219.159C636.721 219.159 599.69 219.159 562.168 219.159C524.809 219.159 487.122 219.159 449.764 219.159C412.241 219.159 375.21 219.159 337.687 219.159C300.329 219.159 262.642 219.159 225.284 219.159C187.761 219.159 150.73 219.159 113.207 219.159C75.8485 219.159 38.162 219.159 19.3188 219.159H0.475586V132.215Z" fill="#87FF65"/>
    </svg>