<svg width="1920" height="1080" viewBox="0 0 1920 1080" fill="none" xmlns="http://www.w3.org/2000/svg">
    <g clip-path="url(#clip0_29_40)">
    <rect width="1920" height="1080" fill="white"/>
    <g clip-path="url(#clip1_29_40)">
    <path d="M1920 0H0V1080H1920V0Z" fill="black"/>
    <path d="M1920 648C1875 651.1 1829.9 654.2 1795.5 625.7C1761.2 597.2 1737.4 537.1 1711.4 503.5C1685.4 469.9 1657.2 462.8 1613.3 459C1569.5 455.1 1510.1 454.5 1503.5 416.5C1497 378.5 1543.3 303.2 1506.8 276.1C1470.2 249 1350.8 270.2 1321.3 248C1291.8 225.8 1352.2 160.2 1359 111.6C1365.8 63 1318.9 31.5 1272 0H1920V648Z" fill="#84FF62"/>
    <path d="M0 432C31.4 492.3 62.9 552.6 104.8 553.3C146.7 554 199.1 495.1 248 481.3C296.9 467.6 342.4 499 348.3 558.7C354.3 618.3 320.8 706.1 338.7 741.3C356.6 776.5 425.8 759 459.8 772.8C493.8 786.5 492.6 831.6 517.4 865.7C542.1 899.8 592.8 923 618.9 956.9C645 990.8 646.5 1035.4 648 1080H0V432Z" fill="#84FF62"/>
    </g>
    </g>
    <defs>
    <clipPath id="clip0_29_40">
    <rect width="1920" height="1080" fill="white"/>
    </clipPath>
    <clipPath id="clip1_29_40">
    <rect width="1920" height="1080" fill="white"/>
    </clipPath>
    </defs>
</svg>
    