<svg width="1920" height="768" viewBox="0 0 1920 768" fill="none" xmlns="http://www.w3.org/2000/svg">
    <path d="M0 150.953L45.6 158.81C91.4 166.874 182.6 182.589 274 191.893C365.4 201.198 456.6 204.093 548 185.07C639.4 166.047 730.6 125.521 822.4 102.776C914 80.0318 1006 75.0694 1097.6 97.6071C1189.4 119.938 1280.6 169.562 1372 196.442C1463.4 223.322 1554.6 227.457 1646 219.6C1737.4 211.536 1828.6 191.686 1874.4 181.555L1920 171.63V519H1874.4C1828.6 519 1737.4 519 1646 519C1554.6 519 1463.4 519 1372 519C1280.6 519 1189.4 519 1097.6 519C1006 519 914 519 822.4 519C730.6 519 639.4 519 548 519C456.6 519 365.4 519 274 519C182.6 519 91.4 519 45.6 519H0V150.953Z" fill="#121213"/>
    <path d="M0 262.333L45.6 260.532C91.4 258.506 182.6 254.904 274 251.526C365.4 248.149 456.6 244.997 548 235.316C639.4 225.634 730.6 208.974 822.4 210.55C914 212.126 1006 231.488 1097.6 223.608C1189.4 215.728 1280.6 180.605 1372 176.327C1463.4 172.275 1554.6 199.292 1646 197.491C1737.4 195.465 1828.6 164.845 1874.4 149.31L1920 134V519H1874.4C1828.6 519 1737.4 519 1646 519C1554.6 519 1463.4 519 1372 519C1280.6 519 1189.4 519 1097.6 519C1006 519 914 519 822.4 519C730.6 519 639.4 519 548 519C456.6 519 365.4 519 274 519C182.6 519 91.4 519 45.6 519H0V262.333Z" fill="#396B2A"/>
    <path d="M0 271.676L45.6 264.931C91.4 258.186 182.6 244.695 274 236.151C365.4 227.383 456.6 223.785 548 224.01C639.4 224.46 730.6 228.956 822.4 230.081C914 231.205 1006 228.956 1097.6 232.779C1189.4 236.376 1280.6 246.269 1372 261.558C1463.4 276.847 1554.6 297.982 1646 309.899C1737.4 321.815 1828.6 324.963 1874.4 326.312L1920 327.886V519H1874.4C1828.6 519 1737.4 519 1646 519C1554.6 519 1463.4 519 1372 519C1280.6 519 1189.4 519 1097.6 519C1006 519 914 519 822.4 519C730.6 519 639.4 519 548 519C456.6 519 365.4 519 274 519C182.6 519 91.4 519 45.6 519H0V271.676Z" fill="#7BE85C"/>
    <path d="M0 388.312L45.6 374.342C91.4 360.597 182.6 332.657 274 324.77C365.4 316.884 456.6 329.052 548 337.614C639.4 346.176 730.6 351.584 822.4 341.67C914 331.981 1006 307.195 1097.6 300.886C1189.4 294.352 1280.6 306.519 1372 311.251C1463.4 316.208 1554.6 313.955 1646 316.659C1737.4 319.137 1828.6 326.798 1874.4 330.404L1920 334.234V519H1874.4C1828.6 519 1737.4 519 1646 519C1554.6 519 1463.4 519 1372 519C1280.6 519 1189.4 519 1097.6 519C1006 519 914 519 822.4 519C730.6 519 639.4 519 548 519C456.6 519 365.4 519 274 519C182.6 519 91.4 519 45.6 519H0V388.312Z" fill="#4A8C38"/>
    <path d="M0 449.386L45.6 441.526C91.4 433.667 182.6 417.947 274 410.537C365.4 402.902 456.6 403.8 548 402.677C639.4 401.554 730.6 398.41 822.4 407.393C914 416.375 1006 437.484 1097.6 444.446C1189.4 451.632 1280.6 444.895 1372 442.2C1463.4 439.73 1554.6 441.077 1646 433.218C1737.4 425.358 1828.6 408.291 1874.4 399.533L1920 391V519H1874.4C1828.6 519 1737.4 519 1646 519C1554.6 519 1463.4 519 1372 519C1280.6 519 1189.4 519 1097.6 519C1006 519 914 519 822.4 519C730.6 519 639.4 519 548 519C456.6 519 365.4 519 274 519C182.6 519 91.4 519 45.6 519H0V449.386Z" fill="#121213"/>
    <path d="M1920 616.333L1874.4 628C1828.6 639.667 1737.4 663 1646 674C1554.6 685.333 1463.4 684 1372 685.667C1280.6 687.333 1189.4 692 1097.6 678.667C1006 665.333 914 634 822.4 623.667C730.6 613 639.4 623 548 627C456.6 630.667 365.4 628.667 274 640.333C182.6 652 91.4 677.333 45.6 690.333L0 703V513L45.6 513C91.4 513 182.6 513 274 513C365.4 513 456.6 513 548 513C639.4 513 730.6 513 822.4 513C914 513 1006 513 1097.6 513C1189.4 513 1280.6 513 1372 513C1463.4 513 1554.6 513 1646 513C1737.4 513 1828.6 513 1874.4 513H1920V616.333Z" fill="black"/>
  </svg>
  